<svg width="1024" height="1024" viewBox="0 0 1024 1024" fill="none" xmlns="http://www.w3.org/2000/svg">
<path d="M503.999 139.499C472 297 247.7 583.299 130.5 602.5C96 608.152 130.5 126.5 503.999 139.499Z" fill="#FFA132"/>
<path d="M765.5 813.5C801.5 682 918.5 390.5 495 475C589 605.001 582.5 821.5 524.5 910.5C611 906.333 755.699 849.299 765.5 813.5Z" fill="#1B5095" stroke="black"/>
<path fill-rule="evenodd" clip-rule="evenodd" d="M882 525C882 334.24 737.639 177.197 552.205 157.159L567.445 128.812C762.117 155.806 912 322.899 912 525C912 744.454 735.274 922.63 516.375 924.977L528.931 894.62C725.418 885.77 882 723.671 882 525ZM484.94 894.026C293.229 880.169 142 720.245 142 525C142 322.147 305.243 157.422 507.528 155.026L522.549 125.136C519.043 125.046 515.527 125 512 125C291.086 125 112 304.086 112 525C112 732.413 269.866 902.955 471.997 923.025L484.94 894.026Z" fill="black"/>
<path fill-rule="evenodd" clip-rule="evenodd" d="M547.167 51.4199C547.272 51.2785 547.375 51.1385 547.478 51H566.5H586.222L577.92 60.7257L577.916 60.73L577.915 60.731L577.908 60.7389L577.86 60.7971C577.802 60.8657 577.704 60.9833 577.566 61.1495C577.292 61.4818 576.862 62.008 576.291 62.7239C575.148 64.156 573.442 66.3458 571.286 69.2598C566.974 75.0895 560.874 83.8063 553.901 95.1408C539.944 117.828 522.563 150.888 509.001 192.181C481.939 274.575 470.013 389.803 531.111 521.695C595.792 661.324 587.837 776.169 563.084 856.421C550.753 896.398 534.322 927.594 520.908 948.874C514.697 958.727 509.121 966.472 504.878 972H485.5H465.132L474.435 961.873L474.437 961.87L474.443 961.863L474.453 961.852L474.473 961.831C474.517 961.782 474.597 961.693 474.712 961.562C474.943 961.301 475.314 960.877 475.811 960.291C476.806 959.12 478.306 957.305 480.206 954.865C484.006 949.982 489.396 942.605 495.529 932.876C507.803 913.406 522.997 884.602 534.416 847.579C557.163 773.831 565.208 666.676 503.889 534.305C438.986 394.197 451.561 270.925 480.499 182.819C494.937 138.862 513.431 103.672 528.349 79.4217C535.814 67.2874 542.401 57.8636 547.167 51.4199Z" fill="black"/>
<path d="M517.5 130C376.5 466.5 147 613 147 613C147 613 1025 150.5 759.5 827" stroke="black" stroke-width="20"/>
</svg>
